<mxfile host="app.diagrams.net" modified="2023-09-17T21:37:44.402Z" agent="Mozilla/5.0 (Windows NT 10.0; Win64; x64; rv:109.0) Gecko/20100101 Firefox/117.0" etag="xlMbn2dgKCgm8dtTwJKB" version="21.7.5" type="github">
  <diagram name="Page-1" id="13e1069c-82ec-6db2-03f1-153e76fe0fe0">
    <mxGraphModel dx="1050" dy="566" grid="1" gridSize="10" guides="1" tooltips="1" connect="1" arrows="1" fold="1" page="1" pageScale="1" pageWidth="1100" pageHeight="850" background="none" math="0" shadow="0">
      <root>
        <mxCell id="0" />
        <mxCell id="1" parent="0" />
        <mxCell id="3kVgfyli0-b0yEazTv4E-1" value=":System" style="shape=umlLifeline;perimeter=lifelinePerimeter;container=1;collapsible=0;recursiveResize=0;rounded=0;shadow=0;strokeWidth=1;fontSize=14;" vertex="1" parent="1">
          <mxGeometry x="50" y="10" width="110" height="500" as="geometry" />
        </mxCell>
        <mxCell id="3kVgfyli0-b0yEazTv4E-2" value="" style="points=[];perimeter=orthogonalPerimeter;rounded=0;shadow=0;strokeWidth=1;" vertex="1" parent="3kVgfyli0-b0yEazTv4E-1">
          <mxGeometry x="50" y="70" width="10" height="110" as="geometry" />
        </mxCell>
        <mxCell id="3kVgfyli0-b0yEazTv4E-62" value="" style="points=[];perimeter=orthogonalPerimeter;rounded=0;shadow=0;strokeWidth=1;" vertex="1" parent="3kVgfyli0-b0yEazTv4E-1">
          <mxGeometry x="50" y="241" width="10" height="60" as="geometry" />
        </mxCell>
        <mxCell id="3kVgfyli0-b0yEazTv4E-83" value="" style="curved=1;endArrow=classic;html=1;rounded=0;entryX=-0.4;entryY=0.909;entryDx=0;entryDy=0;entryPerimeter=0;exitX=0;exitY=0.727;exitDx=0;exitDy=0;exitPerimeter=0;" edge="1" parent="3kVgfyli0-b0yEazTv4E-1" source="3kVgfyli0-b0yEazTv4E-2" target="3kVgfyli0-b0yEazTv4E-2">
          <mxGeometry width="50" height="50" relative="1" as="geometry">
            <mxPoint x="-10" y="220" as="sourcePoint" />
            <mxPoint x="40" y="170" as="targetPoint" />
            <Array as="points">
              <mxPoint x="20" y="150" />
              <mxPoint x="10" y="170" />
            </Array>
          </mxGeometry>
        </mxCell>
        <mxCell id="3kVgfyli0-b0yEazTv4E-3" value=":Email User" style="shape=umlLifeline;perimeter=lifelinePerimeter;container=1;collapsible=0;recursiveResize=0;rounded=0;shadow=0;strokeWidth=1;fontSize=14;movable=1;resizable=1;rotatable=1;deletable=1;editable=1;connectable=1;locked=0;" vertex="1" parent="1">
          <mxGeometry x="190" y="10" width="150" height="500" as="geometry" />
        </mxCell>
        <mxCell id="3kVgfyli0-b0yEazTv4E-4" value="" style="points=[];perimeter=orthogonalPerimeter;rounded=0;shadow=0;strokeWidth=1;" vertex="1" parent="3kVgfyli0-b0yEazTv4E-3">
          <mxGeometry x="70" y="70" width="10" height="110" as="geometry" />
        </mxCell>
        <mxCell id="3kVgfyli0-b0yEazTv4E-5" value="" style="points=[];perimeter=orthogonalPerimeter;rounded=0;shadow=0;strokeWidth=1;" vertex="1" parent="3kVgfyli0-b0yEazTv4E-3">
          <mxGeometry x="70" y="211" width="10" height="30" as="geometry" />
        </mxCell>
        <mxCell id="3kVgfyli0-b0yEazTv4E-67" value="" style="points=[];perimeter=orthogonalPerimeter;rounded=0;shadow=0;strokeWidth=1;" vertex="1" parent="3kVgfyli0-b0yEazTv4E-3">
          <mxGeometry x="70" y="291" width="10" height="119" as="geometry" />
        </mxCell>
        <mxCell id="3kVgfyli0-b0yEazTv4E-79" value="" style="curved=1;endArrow=classic;html=1;rounded=0;exitX=-0.2;exitY=0.982;exitDx=0;exitDy=0;exitPerimeter=0;entryX=-0.4;entryY=0.3;entryDx=0;entryDy=0;entryPerimeter=0;" edge="1" parent="3kVgfyli0-b0yEazTv4E-3" source="3kVgfyli0-b0yEazTv4E-4" target="3kVgfyli0-b0yEazTv4E-5">
          <mxGeometry width="50" height="50" relative="1" as="geometry">
            <mxPoint x="320" y="324" as="sourcePoint" />
            <mxPoint x="370" y="274" as="targetPoint" />
            <Array as="points">
              <mxPoint x="30" y="200" />
              <mxPoint x="40" y="220" />
            </Array>
          </mxGeometry>
        </mxCell>
        <mxCell id="3kVgfyli0-b0yEazTv4E-8" value="" style="verticalAlign=bottom;endArrow=open;dashed=1;endSize=8;shadow=0;strokeWidth=1;fontSize=14;" edge="1" parent="1">
          <mxGeometry x="-0.0604" y="-117" relative="1" as="geometry">
            <mxPoint x="260" y="120" as="targetPoint" />
            <mxPoint x="110" y="120" as="sourcePoint" />
            <mxPoint as="offset" />
          </mxGeometry>
        </mxCell>
        <mxCell id="3kVgfyli0-b0yEazTv4E-10" value="1: Registration" style="text;html=1;strokeColor=none;fillColor=none;align=center;verticalAlign=middle;whiteSpace=wrap;rounded=0;fontSize=14;" vertex="1" parent="1">
          <mxGeometry x="130" y="67" width="110" height="30" as="geometry" />
        </mxCell>
        <mxCell id="3kVgfyli0-b0yEazTv4E-11" value=":Gmail API" style="shape=umlLifeline;perimeter=lifelinePerimeter;container=1;collapsible=0;recursiveResize=0;rounded=0;shadow=0;strokeWidth=1;fontSize=14;movable=1;resizable=1;rotatable=1;deletable=1;editable=1;connectable=1;" vertex="1" parent="1">
          <mxGeometry x="350" y="10" width="151" height="500" as="geometry" />
        </mxCell>
        <mxCell id="3kVgfyli0-b0yEazTv4E-13" value="" style="points=[];perimeter=orthogonalPerimeter;rounded=0;shadow=0;strokeWidth=1;" vertex="1" parent="3kVgfyli0-b0yEazTv4E-11">
          <mxGeometry x="70" y="211" width="10" height="30" as="geometry" />
        </mxCell>
        <mxCell id="3kVgfyli0-b0yEazTv4E-66" value="" style="points=[];perimeter=orthogonalPerimeter;rounded=0;shadow=0;strokeWidth=1;" vertex="1" parent="3kVgfyli0-b0yEazTv4E-11">
          <mxGeometry x="70.5" y="261" width="10" height="149" as="geometry" />
        </mxCell>
        <mxCell id="3kVgfyli0-b0yEazTv4E-16" value="" style="endArrow=classic;html=1;rounded=0;fontSize=14;" edge="1" parent="1">
          <mxGeometry width="50" height="50" relative="1" as="geometry">
            <mxPoint x="260" y="93" as="sourcePoint" />
            <mxPoint x="110" y="93" as="targetPoint" />
          </mxGeometry>
        </mxCell>
        <mxCell id="3kVgfyli0-b0yEazTv4E-19" value="" style="verticalAlign=bottom;endArrow=open;dashed=1;endSize=8;shadow=0;strokeWidth=1;fontSize=14;" edge="1" parent="1">
          <mxGeometry x="0.3204" y="-54" relative="1" as="geometry">
            <mxPoint x="580" y="164" as="targetPoint" />
            <mxPoint x="110" y="164" as="sourcePoint" />
            <mxPoint as="offset" />
          </mxGeometry>
        </mxCell>
        <mxCell id="3kVgfyli0-b0yEazTv4E-20" value=":Database" style="shape=umlLifeline;perimeter=lifelinePerimeter;container=1;collapsible=0;recursiveResize=0;rounded=0;shadow=0;strokeWidth=1;fontSize=14;movable=1;resizable=1;rotatable=1;deletable=1;editable=1;connectable=1;locked=0;" vertex="1" parent="1">
          <mxGeometry x="530" y="10" width="110" height="500" as="geometry" />
        </mxCell>
        <mxCell id="3kVgfyli0-b0yEazTv4E-22" value="" style="points=[];perimeter=orthogonalPerimeter;rounded=0;shadow=0;strokeWidth=1;" vertex="1" parent="3kVgfyli0-b0yEazTv4E-20">
          <mxGeometry x="50" y="100" width="10" height="80" as="geometry" />
        </mxCell>
        <mxCell id="3kVgfyli0-b0yEazTv4E-57" value="" style="points=[];perimeter=orthogonalPerimeter;rounded=0;shadow=0;strokeWidth=1;" vertex="1" parent="3kVgfyli0-b0yEazTv4E-20">
          <mxGeometry x="50" y="211" width="10" height="70" as="geometry" />
        </mxCell>
        <mxCell id="3kVgfyli0-b0yEazTv4E-86" value="" style="points=[];perimeter=orthogonalPerimeter;rounded=0;shadow=0;strokeWidth=1;" vertex="1" parent="3kVgfyli0-b0yEazTv4E-20">
          <mxGeometry x="50" y="390" width="10" height="30" as="geometry" />
        </mxCell>
        <mxCell id="3kVgfyli0-b0yEazTv4E-31" value="" style="endArrow=classic;html=1;rounded=0;fontSize=14;exitX=1.15;exitY=0.893;exitDx=0;exitDy=0;exitPerimeter=0;entryX=0;entryY=0.167;entryDx=0;entryDy=0;entryPerimeter=0;" edge="1" parent="1" source="3kVgfyli0-b0yEazTv4E-66" target="3kVgfyli0-b0yEazTv4E-86">
          <mxGeometry width="50" height="50" relative="1" as="geometry">
            <mxPoint x="654.5" y="380" as="sourcePoint" />
            <mxPoint x="570" y="404" as="targetPoint" />
          </mxGeometry>
        </mxCell>
        <mxCell id="3kVgfyli0-b0yEazTv4E-36" value="12: Email list request" style="text;html=1;strokeColor=none;fillColor=none;align=center;verticalAlign=middle;whiteSpace=wrap;rounded=0;labelBackgroundColor=none;labelBorderColor=none;fontSize=14;fontColor=default;" vertex="1" parent="1">
          <mxGeometry x="267" y="293" width="150" height="30" as="geometry" />
        </mxCell>
        <mxCell id="3kVgfyli0-b0yEazTv4E-46" value="2: OTP" style="text;html=1;strokeColor=none;fillColor=none;align=center;verticalAlign=middle;whiteSpace=wrap;rounded=0;fontSize=14;" vertex="1" parent="1">
          <mxGeometry x="124" y="95" width="110" height="30" as="geometry" />
        </mxCell>
        <mxCell id="3kVgfyli0-b0yEazTv4E-47" value="" style="endArrow=classic;html=1;rounded=0;fontSize=14;exitX=-0.2;exitY=0.636;exitDx=0;exitDy=0;exitPerimeter=0;" edge="1" parent="1" source="3kVgfyli0-b0yEazTv4E-4">
          <mxGeometry width="50" height="50" relative="1" as="geometry">
            <mxPoint x="840" y="190" as="sourcePoint" />
            <mxPoint x="110" y="150" as="targetPoint" />
          </mxGeometry>
        </mxCell>
        <mxCell id="3kVgfyli0-b0yEazTv4E-48" value="6: OTP" style="text;html=1;strokeColor=none;fillColor=none;align=center;verticalAlign=middle;whiteSpace=wrap;rounded=0;fontSize=14;" vertex="1" parent="1">
          <mxGeometry x="136" y="180" width="85" height="20" as="geometry" />
        </mxCell>
        <mxCell id="3kVgfyli0-b0yEazTv4E-49" value="" style="endArrow=classic;html=1;rounded=0;fontSize=14;exitX=1.1;exitY=0.333;exitDx=0;exitDy=0;exitPerimeter=0;" edge="1" parent="1" source="3kVgfyli0-b0yEazTv4E-5">
          <mxGeometry width="50" height="50" relative="1" as="geometry">
            <mxPoint x="160" y="325.50000000000006" as="sourcePoint" />
            <mxPoint x="420" y="231" as="targetPoint" />
          </mxGeometry>
        </mxCell>
        <mxCell id="3kVgfyli0-b0yEazTv4E-50" value="8: Authorization" style="text;html=1;strokeColor=none;fillColor=none;align=center;verticalAlign=middle;whiteSpace=wrap;rounded=0;fontSize=14;" vertex="1" parent="1">
          <mxGeometry x="291" y="205" width="110" height="30" as="geometry" />
        </mxCell>
        <mxCell id="3kVgfyli0-b0yEazTv4E-54" value="&lt;div&gt;3: Adding user to&lt;/div&gt;&lt;div&gt;database&lt;br&gt;&lt;/div&gt;" style="text;html=1;strokeColor=none;fillColor=none;align=center;verticalAlign=middle;whiteSpace=wrap;rounded=0;fontSize=14;" vertex="1" parent="1">
          <mxGeometry x="451" y="89" width="110" height="30" as="geometry" />
        </mxCell>
        <mxCell id="3kVgfyli0-b0yEazTv4E-18" value="4: Login" style="text;html=1;strokeColor=none;fillColor=none;align=center;verticalAlign=middle;whiteSpace=wrap;rounded=0;fontSize=14;" vertex="1" parent="1">
          <mxGeometry x="125" y="126" width="110" height="30" as="geometry" />
        </mxCell>
        <mxCell id="3kVgfyli0-b0yEazTv4E-55" value="5: User Validation" style="text;html=1;strokeColor=none;fillColor=none;align=center;verticalAlign=middle;whiteSpace=wrap;rounded=0;fontSize=14;" vertex="1" parent="1">
          <mxGeometry x="450" y="138" width="115" height="30" as="geometry" />
        </mxCell>
        <mxCell id="3kVgfyli0-b0yEazTv4E-58" value="" style="endArrow=open;html=1;rounded=0;fontSize=14;dashed=1" edge="1" parent="1">
          <mxGeometry width="50" height="50" relative="1" as="geometry">
            <mxPoint x="430" y="231" as="sourcePoint" />
            <mxPoint x="580" y="232" as="targetPoint" />
          </mxGeometry>
        </mxCell>
        <mxCell id="3kVgfyli0-b0yEazTv4E-59" value="" style="verticalAlign=bottom;endArrow=open;dashed=1;endSize=8;shadow=0;strokeWidth=1;fontSize=14;exitX=1.3;exitY=0.364;exitDx=0;exitDy=0;exitPerimeter=0;entryX=-0.1;entryY=0.125;entryDx=0;entryDy=0;entryPerimeter=0;" edge="1" parent="1" source="3kVgfyli0-b0yEazTv4E-4" target="3kVgfyli0-b0yEazTv4E-22">
          <mxGeometry x="-0.0604" y="-117" relative="1" as="geometry">
            <mxPoint x="420" y="110" as="targetPoint" />
            <mxPoint x="270" y="110" as="sourcePoint" />
            <mxPoint as="offset" />
          </mxGeometry>
        </mxCell>
        <mxCell id="3kVgfyli0-b0yEazTv4E-60" value="" style="verticalAlign=bottom;endArrow=open;dashed=1;endSize=8;shadow=0;strokeWidth=1;exitX=1;exitY=0.909;exitDx=0;exitDy=0;exitPerimeter=0;entryX=0;entryY=0.909;entryDx=0;entryDy=0;entryPerimeter=0;" edge="1" parent="1" source="3kVgfyli0-b0yEazTv4E-2" target="3kVgfyli0-b0yEazTv4E-4">
          <mxGeometry x="-1" y="-70" relative="1" as="geometry">
            <mxPoint x="810" y="300" as="targetPoint" />
            <mxPoint x="660" y="300" as="sourcePoint" />
            <mxPoint x="39" y="63" as="offset" />
          </mxGeometry>
        </mxCell>
        <mxCell id="3kVgfyli0-b0yEazTv4E-61" value="&lt;div&gt;9: Adding tokens to&lt;/div&gt;&lt;div&gt;database&lt;br&gt;&lt;/div&gt;" style="text;html=1;strokeColor=none;fillColor=none;align=center;verticalAlign=middle;whiteSpace=wrap;rounded=0;fontSize=14;" vertex="1" parent="1">
          <mxGeometry x="436" y="201" width="140" height="30" as="geometry" />
        </mxCell>
        <mxCell id="3kVgfyli0-b0yEazTv4E-65" value="10: Token Access" style="text;html=1;strokeColor=none;fillColor=none;align=center;verticalAlign=middle;whiteSpace=wrap;rounded=0;fontSize=14;" vertex="1" parent="1">
          <mxGeometry x="120" y="236" width="120" height="30" as="geometry" />
        </mxCell>
        <mxCell id="3kVgfyli0-b0yEazTv4E-64" value="" style="endArrow=classic;html=1;rounded=0;fontSize=14;entryX=-0.4;entryY=0.571;entryDx=0;entryDy=0;entryPerimeter=0;" edge="1" parent="1" source="3kVgfyli0-b0yEazTv4E-62" target="3kVgfyli0-b0yEazTv4E-57">
          <mxGeometry width="50" height="50" relative="1" as="geometry">
            <mxPoint x="870" y="481.00000000000006" as="sourcePoint" />
            <mxPoint x="540" y="291" as="targetPoint" />
          </mxGeometry>
        </mxCell>
        <mxCell id="3kVgfyli0-b0yEazTv4E-68" value="" style="endArrow=classic;html=1;rounded=0;fontSize=14;" edge="1" parent="1">
          <mxGeometry width="50" height="50" relative="1" as="geometry">
            <mxPoint x="420" y="288" as="sourcePoint" />
            <mxPoint x="110" y="287" as="targetPoint" />
          </mxGeometry>
        </mxCell>
        <mxCell id="3kVgfyli0-b0yEazTv4E-69" value="11: Token Validation" style="text;html=1;strokeColor=none;fillColor=none;align=center;verticalAlign=middle;whiteSpace=wrap;rounded=0;fontSize=14;" vertex="1" parent="1">
          <mxGeometry x="274" y="264" width="134" height="30" as="geometry" />
        </mxCell>
        <mxCell id="3kVgfyli0-b0yEazTv4E-71" value="" style="endArrow=classic;html=1;rounded=0;fontSize=14;fontColor=default;" edge="1" parent="1">
          <mxGeometry width="50" height="50" relative="1" as="geometry">
            <mxPoint x="270" y="317" as="sourcePoint" />
            <mxPoint x="421" y="317" as="targetPoint" />
          </mxGeometry>
        </mxCell>
        <mxCell id="3kVgfyli0-b0yEazTv4E-72" value="" style="verticalAlign=bottom;endArrow=open;dashed=1;endSize=8;shadow=0;strokeWidth=1;" edge="1" parent="1">
          <mxGeometry x="-1" y="-70" relative="1" as="geometry">
            <mxPoint x="270" y="351" as="targetPoint" />
            <mxPoint x="420" y="351" as="sourcePoint" />
            <mxPoint x="39" y="63" as="offset" />
          </mxGeometry>
        </mxCell>
        <mxCell id="3kVgfyli0-b0yEazTv4E-73" value="13: Inbox fetching" style="text;html=1;strokeColor=none;fillColor=none;align=center;verticalAlign=middle;whiteSpace=wrap;rounded=0;labelBackgroundColor=none;labelBorderColor=none;fontSize=14;fontColor=default;" vertex="1" parent="1">
          <mxGeometry x="273" y="322" width="150" height="30" as="geometry" />
        </mxCell>
        <mxCell id="3kVgfyli0-b0yEazTv4E-75" value="" style="endArrow=classic;html=1;rounded=0;fontSize=14;exitX=1.2;exitY=0.918;exitDx=0;exitDy=0;exitPerimeter=0;" edge="1" parent="1" source="3kVgfyli0-b0yEazTv4E-4">
          <mxGeometry width="50" height="50" relative="1" as="geometry">
            <mxPoint x="890" y="225" as="sourcePoint" />
            <mxPoint x="580" y="181" as="targetPoint" />
          </mxGeometry>
        </mxCell>
        <mxCell id="3kVgfyli0-b0yEazTv4E-76" value="7: Email Selection" style="text;html=1;strokeColor=none;fillColor=none;align=center;verticalAlign=middle;whiteSpace=wrap;rounded=0;fontSize=14;" vertex="1" parent="1">
          <mxGeometry x="289" y="175" width="122" height="30" as="geometry" />
        </mxCell>
        <mxCell id="3kVgfyli0-b0yEazTv4E-77" value="" style="endArrow=classic;html=1;rounded=0;fontSize=14;fontColor=default;exitX=1.1;exitY=0.731;exitDx=0;exitDy=0;exitPerimeter=0;" edge="1" parent="1" source="3kVgfyli0-b0yEazTv4E-67">
          <mxGeometry width="50" height="50" relative="1" as="geometry">
            <mxPoint x="280" y="389" as="sourcePoint" />
            <mxPoint x="420" y="389" as="targetPoint" />
          </mxGeometry>
        </mxCell>
        <mxCell id="3kVgfyli0-b0yEazTv4E-78" value="14: Email Selection" style="text;html=1;strokeColor=none;fillColor=none;align=center;verticalAlign=middle;whiteSpace=wrap;rounded=0;labelBackgroundColor=none;labelBorderColor=none;fontSize=14;fontColor=default;" vertex="1" parent="1">
          <mxGeometry x="281" y="363" width="130" height="30" as="geometry" />
        </mxCell>
        <mxCell id="3kVgfyli0-b0yEazTv4E-84" value="" style="verticalAlign=bottom;endArrow=open;dashed=1;endSize=8;shadow=0;strokeWidth=1;entryX=1.1;entryY=0.849;entryDx=0;entryDy=0;entryPerimeter=0;exitX=0.05;exitY=0.886;exitDx=0;exitDy=0;exitPerimeter=0;" edge="1" parent="1" source="3kVgfyli0-b0yEazTv4E-66" target="3kVgfyli0-b0yEazTv4E-67">
          <mxGeometry x="-1" y="-70" relative="1" as="geometry">
            <mxPoint x="450" y="380" as="targetPoint" />
            <mxPoint x="600" y="380" as="sourcePoint" />
            <mxPoint x="39" y="63" as="offset" />
          </mxGeometry>
        </mxCell>
        <mxCell id="3kVgfyli0-b0yEazTv4E-85" value="15: Email Blocking" style="text;html=1;strokeColor=none;fillColor=none;align=center;verticalAlign=middle;whiteSpace=wrap;rounded=0;labelBackgroundColor=none;labelBorderColor=none;fontSize=14;fontColor=default;" vertex="1" parent="1">
          <mxGeometry x="287" y="400" width="120" height="30" as="geometry" />
        </mxCell>
        <mxCell id="3kVgfyli0-b0yEazTv4E-88" value="16: Recording to database" style="text;html=1;strokeColor=none;fillColor=none;align=center;verticalAlign=middle;whiteSpace=wrap;rounded=0;labelBackgroundColor=none;labelBorderColor=none;fontSize=14;fontColor=default;" vertex="1" parent="1">
          <mxGeometry x="445" y="409" width="120" height="30" as="geometry" />
        </mxCell>
      </root>
    </mxGraphModel>
  </diagram>
</mxfile>
